<svg xmlns="http://www.w3.org/2000/svg" viewBox="0 0 2124.9 512"><defs><style>.cls-1{fill:#fd0102;}.cls-2{fill:#336500;}</style></defs><g id="Capa_1" data-name="Capa 1"><rect class="cls-1" x="155.93" y="138.72" width="356.07" height="95.84"/><rect class="cls-2" x="155.93" width="200.13" height="95.84"/><rect class="cls-2" x="155.93" y="277.44" width="200.13" height="95.84"/><rect class="cls-1" x="155.93" y="416.16" width="200.13" height="95.84"/><path class="cls-1" d="M512,394.72c0-64.77-51.12-117.28-114.19-117.28V512C460.88,512,512,459.49,512,394.72Z"/><path class="cls-2" d="M0,117.28a118.85,118.85,0,0,0,22.11,69.36A118.85,118.85,0,0,0,0,256c0,64.77,51.12,117.28,114.19,117.28V0C51.12,0,0,52.51,0,117.28Z"/></g><g id="Capa_3" data-name="Capa 3"><path d="M669.35,91.72H633.87v20.34h41.91v15.78H611.3V42.75h64.61V58.58h-42v18h35.48Z"/><path d="M733.25,105.22a8.14,8.14,0,0,0-3.5-7q-3.51-2.52-12.31-5.21A124.19,124.19,0,0,1,703,87.8q-18.19-8.11-18.19-22.32A18.88,18.88,0,0,1,689.38,53a29.28,29.28,0,0,1,12.82-8.41,54.33,54.33,0,0,1,18.65-3,47.46,47.46,0,0,1,18.09,3.27,28.21,28.21,0,0,1,12.44,9.32A22.75,22.75,0,0,1,755.82,68h-22.5a9.82,9.82,0,0,0-3.51-8.06q-3.49-2.86-9.48-2.87t-9.54,2.43a7.26,7.26,0,0,0-3.51,6.17c0,2.18,1.29,4.15,3.86,5.93s7.09,3.6,13.56,5.49a88.12,88.12,0,0,1,15.95,6.11q15.17,7.95,15.17,21.91a20.15,20.15,0,0,1-9.26,17.53Q737.31,129,721.17,129a54.66,54.66,0,0,1-20.61-3.71q-9.22-3.71-13.88-10.17A24.72,24.72,0,0,1,682,100.25h22.63q0,6.84,3.89,10.08t12.63,3.25c3.73,0,6.67-.73,8.84-2.2A7,7,0,0,0,733.25,105.22Z"/><path d="M843.12,99a29.15,29.15,0,0,1-5.27,15.7,31.18,31.18,0,0,1-13.53,10.54,49.91,49.91,0,0,1-19.9,3.74q-18.45,0-29.06-10.92T764.75,87.22V83q0-12.51,4.79-21.88a34.17,34.17,0,0,1,13.79-14.5,41.44,41.44,0,0,1,20.83-5.11q17,0,27.39,8.15t11.76,22.47h-22.5q-.25-7.77-4.31-11.16t-12.34-3.39q-8.42,0-12.34,5.73T787.7,81.61v6q0,13.62,3.77,19.46t12.95,5.84q7.77,0,11.89-3.33T820.68,99Z"/><path d="M927.21,42.75V98.44a29.69,29.69,0,0,1-4.44,16.39A27.88,27.88,0,0,1,910,125.38,48.62,48.62,0,0,1,890.43,129q-17.1,0-26.93-8.06t-10-22.09V42.75h22.69V99.26q.39,14,14.27,14,7,0,10.61-3.51t3.6-11.4V42.75Z"/><path d="M999.34,91.72H963.85v20.34h41.92v15.78H941.29V42.75h64.6V58.58h-42v18h35.49Z"/><path d="M1037.52,112.06h39.28v15.78H1015V42.75h22.56Z"/><path d="M1140.7,111.94h-30.92l-5.4,15.9h-24.11l34.33-85.09h21.22l34.58,85.09h-24.23ZM1115.18,96.1h20.12l-10.09-29.51Z"/><path d="M1210,127.84V42.75h30.16a47.85,47.85,0,0,1,22.3,5.11,37.78,37.78,0,0,1,15.46,14.43,40.43,40.43,0,0,1,5.63,20.9V87.1a40.61,40.61,0,0,1-5.43,21,37.88,37.88,0,0,1-15.3,14.5,46.88,46.88,0,0,1-22,5.29Zm22.57-69.26v53.48h7.84q9.71,0,14.92-6.29t5.2-18.67V83.42q0-12.33-5.2-18.58t-15.17-6.26Z"/><path d="M1353.17,91.72h-35.48v20.34h41.91v15.78h-64.48V42.75h64.61V58.58h-42v18h35.48Z"/><path d="M1459.63,91.72h-35.49v20.34h41.92v15.78h-64.48V42.75h64.61V58.58h-42v18h35.49Z"/><path d="M1475.25,127.84V42.75h30.15a47.89,47.89,0,0,1,22.31,5.11,37.85,37.85,0,0,1,15.46,14.43,40.52,40.52,0,0,1,5.63,20.9V87.1a40.52,40.52,0,0,1-5.44,21,37.88,37.88,0,0,1-15.3,14.5,46.84,46.84,0,0,1-22,5.29Zm22.57-69.26v53.48h7.84q9.71,0,14.91-6.29t5.21-18.67V83.42q0-12.33-5.21-18.58t-15.17-6.26Z"/><path d="M1633.78,42.75V98.44a29.69,29.69,0,0,1-4.43,16.39,27.88,27.88,0,0,1-12.73,10.55A48.65,48.65,0,0,1,1597,129q-17.1,0-26.93-8.06t-10-22.09V42.75h22.69V99.26q.39,14,14.27,14,7,0,10.61-3.51t3.6-11.4V42.75Z"/><path d="M1723.59,99a29.07,29.07,0,0,1-5.27,15.7,31.07,31.07,0,0,1-13.53,10.54,49.91,49.91,0,0,1-19.9,3.74q-18.45,0-29.06-10.92t-10.6-30.86V83q0-12.51,4.79-21.88a34.06,34.06,0,0,1,13.79-14.5,41.4,41.4,0,0,1,20.82-5.11q17,0,27.39,8.15t11.77,22.47h-22.5Q1701,64.37,1697,61t-12.35-3.39q-8.42,0-12.34,5.73t-4.11,18.29v6q0,13.62,3.76,19.46t13,5.84q7.78,0,11.9-3.33T1701.16,99Z"/><path d="M1787.43,111.94h-30.92l-5.4,15.9H1727l34.33-85.09h21.21l34.59,85.09h-24.24ZM1761.91,96.1H1782l-10.09-29.51Z"/><path d="M1898.33,99a29.16,29.16,0,0,1-5.28,15.7,31.07,31.07,0,0,1-13.53,10.54,49.91,49.91,0,0,1-19.9,3.74q-18.45,0-29-10.92T1820,87.22V83q0-12.51,4.79-21.88a34.12,34.12,0,0,1,13.79-14.5,41.41,41.41,0,0,1,20.83-5.11q17,0,27.38,8.15t11.77,22.47H1876q-.26-7.77-4.31-11.16t-12.34-3.39q-8.43,0-12.35,5.73t-4.11,18.29v6q0,13.62,3.76,19.46t12.95,5.84q7.79,0,11.9-3.33T1875.89,99Z"/><path d="M1933,127.84h-22.5V42.75H1933Z"/><path d="M2028,87a46.33,46.33,0,0,1-5.08,22,35.38,35.38,0,0,1-14.43,14.75,43.26,43.26,0,0,1-21.31,5.17,44,44,0,0,1-21.21-5,35.54,35.54,0,0,1-14.44-14.29,45.12,45.12,0,0,1-5.43-21.33V83.6a46.47,46.47,0,0,1,5.05-22.06,35.35,35.35,0,0,1,14.46-14.76,46.59,46.59,0,0,1,42.66-.06,36.09,36.09,0,0,1,14.49,14.64A45.24,45.24,0,0,1,2028,83.13Zm-23-3.56q0-12.67-4.66-19.26T1987,57.65q-17,0-17.94,23.14L1969,87q0,12.51,4.56,19.23t13.57,6.72q8.55,0,13.18-6.6t4.69-19ZM1989.68,20h22.88L1994.69,38.3l-17.68,0Z"/><path d="M2117.8,127.84h-22.44l-33.17-52.95v53h-22.56V42.75h22.56l33.11,52.94V42.75h22.5Z"/><path d="M780.73,482.69q-.79-7.21-1.56-14.28c-.51-4.72-1.08-9.47-1.71-14.28H728.63q-3.92,6.9-7.85,14T713,482.69H701.93q15.45-28,31.82-54.41t32.12-49.75h10.86q3.74,21.95,7.39,47.42t7.1,56.74Zm-12.06-92.44q-9.27,14-17.93,27.48t-17,27.68h42.61q-1.61-13.52-3.46-27.13T768.67,390.25Z"/><path d="M802.31,482.69q7.63-28.11,16-54.41t16-49.75h10.19q2.25,9,4.59,19.24t4.44,20.51q2.1,10.31,3.84,20t2.93,17.66q5.53-8.56,12.42-19t13.91-21q7-10.51,13.77-20.29t12.12-17.13h10.48q-1.35,13.68-3.14,26.68T916,431q-2,12.78-4.35,25.63t-4.87,26.08H896.25q5.25-24.49,9.08-46.75T912,393.86q-2.25,2.85-6.22,8.49T897,415.05q-4.78,7.06-9.95,14.88t-10,15.11l-8.68,13.22q-3.9,5.94-6,9.4h-9q-.6-4.21-1.66-10.37c-.71-4.11-1.48-8.52-2.34-13.23s-1.76-9.57-2.72-14.58-1.92-9.79-2.87-14.35-1.86-8.69-2.72-12.4-1.58-6.72-2.19-9q-6.59,19.85-13.31,42.54T812.5,482.69Z"/><path d="M998.42,482.69q-.79-7.21-1.56-14.28c-.51-4.72-1.08-9.47-1.71-14.28H946.32q-3.92,6.9-7.85,14t-7.77,14.6H919.62q15.45-28,31.81-54.41t32.13-49.75h10.86q3.74,21.95,7.39,47.42t7.1,56.74Zm-12.06-92.44q-9.27,14-17.93,27.48t-17,27.68H994q-1.6-13.52-3.46-27.13T986.36,390.25Z"/><path d="M1047.15,378.53h10q5.55,9.62,11,21.49t10.34,24q4.88,12.09,8.54,23.22t5.62,19.09l20.38-87.78h10l-24.57,104.16h-10q-2.7-9.17-6.74-21.42T1073,436.4q-4.73-12.63-9.66-24.28a216.84,216.84,0,0,0-9.44-19.76l-21.58,90.33h-10Z"/><path d="M1198,478a55.48,55.48,0,0,1-13.93,5.11,68.43,68.43,0,0,1-15.43,1.8,48,48,0,0,1-15.36-2.33,30.91,30.91,0,0,1-12-7.21,32.73,32.73,0,0,1-7.8-12.48,53.27,53.27,0,0,1-2.77-18.26,78.77,78.77,0,0,1,5-28.78,64.73,64.73,0,0,1,13.33-21.5,58,58,0,0,1,42.25-18.11,54.58,54.58,0,0,1,13.11,1.51,51,51,0,0,1,12.36,5l-4.64,9.32a43.18,43.18,0,0,0-22.93-6.62,41.16,41.16,0,0,0-18.05,4.14,46.35,46.35,0,0,0-15.21,11.79,58.07,58.07,0,0,0-10.48,18.57,72.07,72.07,0,0,0-3.9,24.42q0,15.33,6.59,23.37t20.23,8A66.17,66.17,0,0,0,1179,475a59,59,0,0,0,8-1.8,41.45,41.45,0,0,0,5.69-2.18c1.55-.75,2.87-1.43,4-2Z"/><path d="M1238.77,378.53h10.17l-24.72,104.16H1213.9Z"/><path d="M1256.56,443.91a74,74,0,0,1,5.09-28,66.93,66.93,0,0,1,13.49-21.34A59.7,59.7,0,0,1,1294.09,381a52.37,52.37,0,0,1,21.65-4.74,40.53,40.53,0,0,1,14.08,2.48,32.77,32.77,0,0,1,11.84,7.52,36,36,0,0,1,8.09,12.77,50,50,0,0,1,3,18.12,74.27,74.27,0,0,1-5.1,28.18,67.08,67.08,0,0,1-13.48,21.34,59.88,59.88,0,0,1-19,13.53,52.51,52.51,0,0,1-21.57,4.73,40.1,40.1,0,0,1-14.16-2.48,32.64,32.64,0,0,1-11.76-7.51,35.76,35.76,0,0,1-8.09-12.78A50.41,50.41,0,0,1,1256.56,443.91Zm10.79,1.65a38.51,38.51,0,0,0,2.1,13.38,24.41,24.41,0,0,0,14.45,15,29.17,29.17,0,0,0,10.56,1.88,41.28,41.28,0,0,0,17.68-4,44.86,44.86,0,0,0,15.14-11.65,59.58,59.58,0,0,0,10.63-18.86,75.09,75.09,0,0,0,4-25.63,38.69,38.69,0,0,0-2.1-13.37,24.19,24.19,0,0,0-14.53-15,29.34,29.34,0,0,0-10.49-1.88,41.48,41.48,0,0,0-17.68,4,45.69,45.69,0,0,0-15.2,11.65,57.6,57.6,0,0,0-10.64,18.87A76.33,76.33,0,0,0,1267.35,445.56Z"/><path d="M1410.46,482.69a444.45,444.45,0,0,1-2.22-51.4q.38-25.86,2-52.76h9.89q-1.42,22.7-2,45.92t.38,47q6.29-9.93,11.76-18.79t10.86-18.11q5.4-9.25,11.09-19.54t12.59-23.07h9q.73,11.26,1.79,22.39t2.17,21.42q1.13,10.29,2.4,19.39t2.46,16.16q4.93-8.72,10.17-19.62t10.47-22.92q5.24-12,10.47-24.8t10.17-25.4h11.09q-12.09,30.38-24.09,56t-24.74,48.16h-10.62q-2.88-15.78-5.3-34.5t-4.1-40.5q-11,20.4-22,38.56t-22.86,36.44Z"/><path d="M1550,378.53h10.17l-24.73,104.16h-10.31Z"/><path d="M1584.25,378.53h10.14L1571.62,474h46l-2,8.72h-56.15Z"/><path d="M1655.27,378.53h10.13L1642.63,474h46l-1.94,8.72h-56.15Z"/><path d="M1726.44,378.53h10.16l-24.72,104.16h-10.32Z"/><path d="M1805.35,482.69q-.8-7.21-1.56-14.28c-.52-4.72-1.08-9.47-1.71-14.28h-48.83q-3.93,6.9-7.85,14t-7.77,14.6h-11.09q15.46-28,31.82-54.41t32.12-49.75h10.86q3.73,21.95,7.4,47.42t7.1,56.74Zm-12.06-92.44q-9.27,14-17.94,27.48t-17,27.68h42.62q-1.62-13.52-3.46-27.13T1793.29,390.25Z"/><path d="M1826.92,482.69q7.65-28.11,16-54.41t16-49.75H1869q2.26,9,4.59,19.24t4.45,20.51q2.1,10.31,3.83,20t2.94,17.66q5.54-8.56,12.42-19t13.91-21q7-10.51,13.76-20.29T1937,378.53h10.49q-1.35,13.68-3.15,26.68T1940.56,431q-2,12.78-4.34,25.63t-4.87,26.08h-10.49q5.27-24.49,9.09-46.75t6.68-42.08c-1.5,1.9-3.56,4.73-6.21,8.49s-5.57,8-8.76,12.7-6.51,9.67-10,14.88-6.76,10.25-10,15.11l-8.68,13.22q-3.9,5.94-6,9.4h-9q-.6-4.21-1.66-10.37t-2.35-13.23q-1.27-7.06-2.71-14.58t-2.87-14.35q-1.44-6.84-2.72-12.4t-2.19-9q-6.58,19.85-13.31,42.54t-13.17,46.44Z"/><path d="M1953.67,468.71a35.52,35.52,0,0,0,10.57,5.34,41.52,41.52,0,0,0,13,2,42.19,42.19,0,0,0,10.42-1.28,27.15,27.15,0,0,0,9-4.06,21,21,0,0,0,6.36-7.06,20.78,20.78,0,0,0,2.4-10.3,15.74,15.74,0,0,0-2.85-9.77,26.8,26.8,0,0,0-7.11-6.46,82.17,82.17,0,0,0-9.29-5,48.41,48.41,0,0,1-9.29-5.63,29,29,0,0,1-7.12-8.05q-2.85-4.73-2.84-12.4a27.58,27.58,0,0,1,2.24-10.74,26.57,26.57,0,0,1,7-9.55,36.88,36.88,0,0,1,11.84-6.84,48.68,48.68,0,0,1,16.85-2.63,51.92,51.92,0,0,1,24.72,5.87l-5.24,8.56a38,38,0,0,0-10.41-4.43A45.27,45.27,0,0,0,2003,385a39.69,39.69,0,0,0-9.51,1.13,26.27,26.27,0,0,0-8.16,3.46,17.33,17.33,0,0,0-5.77,6.16,18.41,18.41,0,0,0-2.18,9.24,15.72,15.72,0,0,0,2.85,9.77,26.24,26.24,0,0,0,7.19,6.46,89.89,89.89,0,0,0,9.29,5,54.38,54.38,0,0,1,9.29,5.56,26.61,26.61,0,0,1,7.19,8.19q2.85,5,2.85,12.93a31.22,31.22,0,0,1-2.32,11.65,27.49,27.49,0,0,1-7.35,10.29,38,38,0,0,1-12.73,7.29,54.59,54.59,0,0,1-18.5,2.78,50.64,50.64,0,0,1-14-1.95,53.81,53.81,0,0,1-12.66-5.41Z"/><path d="M655.37,236a8.38,8.38,0,0,0-3.24-7q-3.24-2.5-11.36-5.2a108.29,108.29,0,0,1-13.3-5.2q-16.8-8.13-16.79-22.32a19.8,19.8,0,0,1,4.18-12.48,27.06,27.06,0,0,1,11.84-8.42,46.83,46.83,0,0,1,17.21-3,40.75,40.75,0,0,1,16.71,3.28A26.32,26.32,0,0,1,672.1,185a24.07,24.07,0,0,1,4.1,13.82H655.43q0-5.2-3.24-8.07c-2.16-1.91-5.07-2.86-8.75-2.86s-6.66.81-8.82,2.42a7.43,7.43,0,0,0-3.23,6.17q0,3.27,3.56,5.93t12.52,5.5a77.45,77.45,0,0,1,14.72,6.1q14,7.95,14,21.92,0,11.16-8.55,17.53t-23.44,6.37a47.18,47.18,0,0,1-19-3.71q-8.52-3.72-12.82-10.17a26.17,26.17,0,0,1-4.31-14.87H629q0,6.84,3.59,10.08t11.66,3.24q5.16,0,8.16-2.19A7.2,7.2,0,0,0,655.37,236Z"/><path d="M740.47,222.52H707.71v20.34h38.7v15.78H686.88V173.55h59.65v15.84H707.71v17.94h32.76Z"/><path d="M824.81,229.83a30.75,30.75,0,0,1-4.87,15.69,29.23,29.23,0,0,1-12.49,10.55,43.15,43.15,0,0,1-18.37,3.74q-17,0-26.83-10.93T752.46,218v-4.2q0-12.51,4.42-21.89a33.17,33.17,0,0,1,12.73-14.49,35.94,35.94,0,0,1,19.23-5.12q15.74,0,25.28,8.16T825,203H804.21c-.16-5.18-1.48-8.91-4-11.16s-6.29-3.39-11.4-3.39-9,1.9-11.39,5.72-3.68,9.92-3.8,18.29v6q0,13.62,3.47,19.46t12,5.85q7.18,0,11-3.33t4-10.58Z"/><path d="M902.44,173.55v55.7a31.63,31.63,0,0,1-4.1,16.39,26.47,26.47,0,0,1-11.75,10.55,42,42,0,0,1-18.1,3.62q-15.79,0-24.87-8.06t-9.26-22.1v-56.1h20.95v56.51q.36,14,13.18,14,6.46,0,9.79-3.51t3.32-11.39V173.55Z"/><path d="M987.6,258.64H966.89l-30.62-52.95v52.95H915.43V173.55h20.84l30.56,52.95V173.55H987.6Z"/><path d="M1000.78,258.64V173.55h27.83a41.47,41.47,0,0,1,20.6,5.12,36.16,36.16,0,0,1,14.27,14.43,43.07,43.07,0,0,1,5.19,20.89v3.92a43.34,43.34,0,0,1-5,21,36.34,36.34,0,0,1-14.13,14.49,40.49,40.49,0,0,1-20.32,5.29Zm20.83-69.25v53.47h7.24q9,0,13.77-6.28t4.81-18.67v-3.68q0-12.33-4.81-18.59t-14-6.25Z"/><path d="M1127.19,242.75h-28.55l-5,15.89H1071.4l31.69-85.09h19.59l31.93,85.09h-22.38Zm-23.56-15.84h18.58l-9.32-29.51Z"/><path d="M1193,228.54h-11.28v30.1H1160.9V173.55h34q15.36,0,24,6.71t8.67,19q0,8.87-3.65,14.71t-11.43,9.46l18,34.35v.88h-22.32Zm-11.28-15.77h13.18q5.92,0,8.93-3.08t3-8.58c0-3.67-1-6.56-3-8.65s-5-3.13-8.9-3.13h-13.18Z"/><path d="M1262.39,258.64h-20.77V173.55h20.77Z"/><path d="M1327,242.75h-28.55l-5,15.89h-22.26l31.69-85.09h19.59l31.93,85.09h-22.38Zm-23.56-15.84H1322l-9.32-29.51Z"/><path d="M1455.27,189.39h-25.93v69.25H1408.5V189.39H1383V173.55h72.23Z"/><path d="M1517.65,222.52h-32.76v20.34h38.69v15.78h-59.53V173.55h59.65v15.84h-38.81v17.94h32.76Zm-19.41-71.76h21.13l-16.5,18.35-16.32,0Z"/><path d="M1602,229.83a30.84,30.84,0,0,1-4.86,15.69,29.26,29.26,0,0,1-12.5,10.55,43.12,43.12,0,0,1-18.37,3.74q-17,0-26.82-10.93t-9.8-30.86v-4.2q0-12.51,4.43-21.89a33.11,33.11,0,0,1,12.73-14.49,35.94,35.94,0,0,1,19.23-5.12q15.72,0,25.28,8.16T1602.16,203h-20.77c-.16-5.18-1.49-8.91-4-11.16s-6.29-3.39-11.39-3.39-9,1.9-11.4,5.72-3.68,9.92-3.8,18.29v6q0,13.62,3.47,19.46t12,5.85q7.18,0,11-3.33t4-10.58Z"/><path d="M1684,258.64h-20.71l-30.62-52.95v52.95h-20.84V173.55h20.84l30.56,52.95V173.55H1684Z"/><path d="M1719.37,258.64H1698.6V173.55h20.77Z"/><path d="M1803.77,229.83a30.75,30.75,0,0,1-4.87,15.69,29.23,29.23,0,0,1-12.49,10.55,43.15,43.15,0,0,1-18.37,3.74q-17,0-26.83-10.93T1731.42,218v-4.2a50.94,50.94,0,0,1,4.42-21.89,33.17,33.17,0,0,1,12.73-14.49,35.94,35.94,0,0,1,19.23-5.12q15.73,0,25.29,8.16T1804,203h-20.78c-.15-5.18-1.48-8.91-4-11.16s-6.29-3.39-11.4-3.39-9,1.9-11.39,5.72-3.68,9.92-3.8,18.29v6q0,13.62,3.47,19.46t12,5.85q7.18,0,11-3.33t4-10.58Z"/><path d="M1862.7,242.75h-28.54l-5,15.89h-22.26l31.7-85.09h19.58l31.93,85.09h-22.37Zm-23.56-15.84h18.58l-9.32-29.51Z"/><path d="M1998.85,258.64h-20.71l-30.63-52.95v52.95h-20.83V173.55h20.83l30.57,52.95V173.55h20.77Z"/><path d="M2012.91,188.8a15.62,15.62,0,0,1,5-11.63,16.31,16.31,0,0,1,11.72-4.79,16.42,16.42,0,0,1,16.32,16.42,15.51,15.51,0,0,1-4.78,11.49,15.86,15.86,0,0,1-11.54,4.7,16.41,16.41,0,0,1-11.78-4.7A15.36,15.36,0,0,1,2012.91,188.8Zm16.68,7.25a6.83,6.83,0,0,0,5.16-2.1,7.16,7.16,0,0,0,2-5.15,7.57,7.57,0,0,0-2-5.26,6.65,6.65,0,0,0-5.16-2.22,7.14,7.14,0,0,0-5.31,2.2,7.22,7.22,0,0,0-2.17,5.28,6.78,6.78,0,0,0,2.23,5.18A7.44,7.44,0,0,0,2029.59,196.05Z"/><path d="M2060.21,217.08l5.29-43.53H2116v15.31h-34.24l-2,16.91a23.45,23.45,0,0,1,5.61-2.18,26.17,26.17,0,0,1,6.79-.93q12.89,0,19.8,7.51t6.91,21.06a29.86,29.86,0,0,1-3.71,14.82,25.32,25.32,0,0,1-10.41,10.2,33.43,33.43,0,0,1-15.85,3.56,35.83,35.83,0,0,1-15.25-3.3,27.3,27.3,0,0,1-11.16-9,21.76,21.76,0,0,1-4-13h20.06a11.06,11.06,0,0,0,3,7.4,9.68,9.68,0,0,0,7.18,2.75q10.09,0,10.09-14.7,0-13.59-12.34-13.59-7,0-10.45,4.43Z"/><rect x="603" y="304.49" width="1521.9" height="30.79"/></g></svg>