<svg id="Capa_2" data-name="Capa 2" xmlns="http://www.w3.org/2000/svg" viewBox="0 0 417 406"><defs><style>.cls-1{fill:#fd0102;}.cls-2{fill:#336500;}</style></defs><rect class="cls-1" x="127" y="110" width="290" height="76"/><rect class="cls-2" x="127" width="163" height="76"/><rect class="cls-2" x="127" y="220" width="163" height="76"/><rect class="cls-1" x="127" y="330" width="163" height="76"/><g id="Capa_4" data-name="Capa 4"><path class="cls-1" d="M464,363a93,93,0,0,0-93-93V456A93,93,0,0,0,464,363Z" transform="translate(-47 -50)"/><path class="cls-2" d="M47,143a92.55,92.55,0,0,0,18,55,93,93,0,0,0,75,148V50A93,93,0,0,0,47,143Z" transform="translate(-47 -50)"/></g></svg>